<?xml version="1.0" standalone="no"?>
<!DOCTYPE svg PUBLIC "-//W3C//DTD SVG 20010904//EN"
 "http://www.w3.org/TR/2001/REC-SVG-20010904/DTD/svg10.dtd">
<svg version="1.0" xmlns="http://www.w3.org/2000/svg"
 width="161.000000pt" height="161.000000pt" viewBox="0 0 161.000000 161.000000"
 preserveAspectRatio="xMidYMid meet">
<metadata>
Created by potrace 1.14, written by Peter Selinger 2001-2017
</metadata>
<g transform="translate(0.000000,161.000000) scale(0.100000,-0.100000)"
fill="#000000" stroke="none">
<path d="M224 1505 c-10 -8 -26 -15 -34 -15 -20 0 -89 -72 -94 -96 -2 -10 -11
-32 -20 -49 -21 -40 -20 -52 8 -102 21 -36 23 -51 19 -102 -4 -44 -10 -62 -22
-66 -13 -4 -17 -23 -19 -111 -2 -99 -1 -106 18 -111 14 -4 20 -14 20 -34 0
-17 6 -32 15 -35 17 -7 21 -54 5 -54 -5 0 -10 -7 -10 -15 0 -8 -7 -15 -15 -15
-9 0 -18 -6 -21 -14 -3 -8 -14 -16 -25 -19 -16 -4 -19 -14 -19 -76 0 -40 4
-71 10 -71 5 0 12 -11 16 -25 3 -14 9 -25 13 -25 4 0 23 -22 43 -49 30 -40 44
-50 77 -56 22 -4 45 -13 52 -21 6 -8 28 -14 48 -14 31 0 47 -9 96 -55 33 -30
66 -55 74 -55 8 0 23 -7 33 -17 10 -9 31 -16 47 -15 21 0 30 -5 34 -19 4 -16
14 -19 65 -19 41 0 63 -5 72 -15 18 -21 295 -22 303 -1 3 8 23 19 44 26 66 20
97 39 143 85 25 25 48 45 53 45 4 0 7 12 7 26 0 17 16 40 50 73 28 26 50 57
50 68 0 11 9 28 20 38 17 15 20 31 20 91 0 63 -3 75 -20 84 -16 9 -20 21 -20
65 0 44 4 56 20 65 18 10 20 21 20 115 0 114 5 131 58 178 17 16 32 37 32 47
0 10 7 20 15 24 22 8 22 184 0 192 -8 4 -15 16 -15 28 0 13 -15 36 -35 55 -19
17 -35 36 -35 41 0 6 -38 10 -90 10 -49 0 -90 -3 -90 -7 0 -5 -14 -22 -30 -40
-17 -18 -30 -36 -30 -40 0 -4 -11 -21 -24 -38 -20 -24 -27 -28 -37 -17 -7 6
-23 12 -36 12 -12 0 -26 7 -31 16 -8 14 -29 15 -150 12 -89 -2 -143 1 -145 7
-2 6 -71 12 -164 15 l-161 5 -37 38 c-20 20 -43 37 -51 37 -9 0 -22 7 -30 15
-20 19 -65 19 -90 0z m89 -35 c3 -13 14 -20 29 -20 39 -1 89 -100 49 -100 -5
0 -11 7 -15 15 -9 24 -26 17 -26 -10 0 -13 -8 -29 -17 -35 -17 -10 -17 -10 0
-20 9 -6 17 -17 17 -24 0 -8 8 -16 18 -20 9 -3 24 -10 32 -15 8 -5 23 -12 33
-15 21 -7 22 -45 1 -53 -21 -8 -56 -42 -77 -75 -10 -16 -24 -28 -32 -28 -8 0
-15 -7 -15 -15 0 -25 -17 -17 -24 11 -5 20 -12 25 -26 21 -11 -3 -25 2 -31 10
-7 8 -25 21 -41 29 -15 8 -28 21 -28 29 0 8 -6 15 -14 15 -10 0 -16 20 -21 70
l-7 70 42 40 c23 22 53 43 66 46 17 4 24 12 22 24 -3 17 37 70 53 70 3 0 9 -9
12 -20z m1055 -49 c2 -15 -3 -28 -12 -33 -27 -15 -18 -28 20 -28 59 0 84 -31
84 -108 0 -74 -14 -104 -69 -152 -23 -19 -41 -40 -41 -47 0 -7 -11 -13 -25
-13 -16 0 -25 6 -25 15 0 8 -4 15 -10 15 -5 0 -16 16 -24 35 -8 19 -22 35 -30
35 -17 0 -56 34 -56 48 0 5 18 27 39 50 22 23 43 51 47 64 3 13 12 26 17 30
17 10 -22 48 -50 48 -28 0 -30 22 -5 49 14 16 29 20 77 18 55 -2 60 -4 63 -26z
m-288 -116 c0 -8 5 -15 10 -15 6 0 10 -4 10 -10 0 -5 -7 -10 -15 -10 -8 0 -15
-9 -15 -20 0 -21 -7 -25 -28 -11 -10 6 -10 10 3 21 22 18 19 29 -10 36 -32 8
-22 24 16 24 19 0 29 -5 29 -15z m-100 -155 c28 0 170 -148 170 -177 0 -13 7
-26 15 -29 8 -4 15 -16 15 -29 0 -31 28 -54 40 -34 13 20 0 122 -16 132 -19
11 -18 37 1 37 8 0 15 -7 15 -15 0 -8 9 -19 20 -25 15 -8 20 -21 20 -54 0 -30
5 -46 15 -50 8 -3 15 -17 15 -30 0 -14 7 -29 16 -34 14 -8 17 -24 15 -85 -2
-67 0 -77 18 -87 18 -9 21 -20 21 -86 0 -57 -4 -76 -15 -80 -8 -4 -15 -13 -15
-22 0 -20 -42 -82 -55 -82 -6 0 -16 9 -23 21 -11 17 -16 18 -28 8 -12 -10 -14
-24 -9 -60 6 -46 5 -50 -29 -85 -20 -20 -36 -41 -36 -46 0 -4 -11 -8 -23 -8
-13 0 -32 -9 -42 -20 -10 -11 -29 -20 -42 -20 -13 0 -26 -7 -29 -15 -5 -12
-31 -15 -150 -15 -136 0 -144 1 -155 21 -10 19 -18 21 -66 17 -45 -4 -57 -2
-66 14 -7 10 -23 18 -37 18 -14 0 -31 9 -37 19 -8 12 -19 17 -31 14 -13 -3
-29 7 -50 31 -20 24 -40 36 -57 36 -21 0 -25 5 -25 30 0 36 -27 52 -45 27 -15
-21 -48 -22 -65 -2 -7 8 -19 15 -27 15 -24 0 -73 43 -73 65 0 11 -9 28 -20 38
-15 12 -20 29 -20 65 0 40 5 53 28 74 31 29 112 46 112 23 0 -30 79 -35 87 -5
3 11 12 20 19 20 9 0 14 11 14 30 0 18 6 33 15 36 8 4 15 15 15 25 0 11 8 22
18 26 9 3 31 21 49 39 18 19 37 34 42 34 6 0 11 -20 11 -44 0 -25 5 -48 10
-51 15 -9 100 80 100 105 0 11 7 23 15 26 8 4 15 17 15 30 0 31 118 154 130
135 10 -18 1 -48 -16 -55 -9 -4 -14 -22 -14 -56 0 -43 3 -50 20 -50 17 0 20 7
20 43 0 30 6 48 20 60 11 9 20 25 20 36 0 10 26 46 58 80 54 58 58 60 71 41 7
-11 22 -20 31 -20z m-650 -439 c0 -6 -4 -13 -10 -16 -5 -3 -10 1 -10 9 0 9 5
16 10 16 6 0 10 -4 10 -9z"/>
<path d="M260 1381 c0 -6 5 -13 10 -16 6 -3 10 1 10 9 0 9 -4 16 -10 16 -5 0
-10 -4 -10 -9z"/>
<path d="M290 1345 c0 -8 5 -15 10 -15 6 0 10 7 10 15 0 8 -4 15 -10 15 -5 0
-10 -7 -10 -15z"/>
<path d="M252 1278 c6 -18 28 -21 28 -4 0 9 -7 16 -16 16 -9 0 -14 -5 -12 -12z"/>
<path d="M286 1253 c-11 -11 -6 -23 9 -23 8 0 15 4 15 9 0 13 -16 22 -24 14z"/>
<path d="M315 1210 c3 -5 10 -10 16 -10 5 0 9 5 9 10 0 6 -7 10 -16 10 -8 0
-12 -4 -9 -10z"/>
<path d="M255 1190 c-7 -12 2 -30 16 -30 5 0 9 9 9 20 0 21 -15 27 -25 10z"/>
<path d="M1340 1305 c0 -9 6 -12 15 -9 8 4 15 10 15 15 0 5 -7 9 -15 9 -8 0
-15 -7 -15 -15z"/>
<path d="M1300 1275 c0 -8 7 -15 15 -15 8 0 15 7 15 15 0 8 -7 15 -15 15 -8 0
-15 -7 -15 -15z"/>
<path d="M1270 1245 c0 -8 5 -15 11 -15 7 0 18 -8 25 -17 10 -14 15 -15 25 -6
10 10 8 14 -7 19 -10 4 -23 13 -27 21 -11 18 -27 17 -27 -2z"/>
<path d="M667 768 c-21 -11 -13 -28 13 -28 10 0 22 -9 25 -21 4 -12 14 -19 23
-17 25 5 21 22 -13 51 -23 19 -35 23 -48 15z"/>
<path d="M1094 765 c-3 -8 -14 -17 -25 -20 -22 -7 -26 -45 -4 -45 8 0 19 9 25
20 6 11 20 20 30 20 24 0 27 25 4 34 -22 8 -24 8 -30 -9z"/>
<path d="M1284 615 c-8 -34 20 -70 36 -45 15 23 7 64 -12 68 -12 2 -19 -5 -24
-23z"/>
<path d="M183 586 c-13 -13 -23 -31 -23 -40 0 -21 29 -20 46 2 12 15 13 14 14
-15 0 -22 6 -33 19 -38 11 -3 22 -12 25 -20 3 -8 12 -15 21 -15 19 0 20 36 0
44 -10 3 -15 19 -15 46 0 34 -4 42 -26 50 -34 13 -36 13 -61 -14z"/>
<path d="M558 580 c-24 -24 -28 -37 -28 -82 1 -42 6 -59 26 -81 21 -25 32 -29
79 -29 46 -1 58 4 85 28 26 25 30 36 30 83 0 46 -4 60 -27 83 -23 24 -34 28
-82 28 -48 -1 -60 -5 -83 -30z m147 -59 c7 -12 -12 -24 -25 -16 -11 7 -4 25
10 25 5 0 11 -4 15 -9z"/>
<path d="M1075 510 c-40 -42 -27 -103 14 -66 12 11 36 16 74 16 47 0 57 3 62
20 12 38 -9 55 -69 56 -48 0 -59 -3 -81 -26z"/>
<path d="M1261 526 c-15 -18 -11 -58 6 -64 7 -2 18 8 25 23 9 21 9 28 -4 41
-13 13 -16 13 -27 0z"/>
<path d="M780 331 c0 -24 50 -81 71 -81 9 0 24 10 32 23 l16 22 16 -22 c9 -13
22 -23 29 -23 16 0 66 45 66 60 0 15 -20 12 -26 -4 -6 -16 -56 -9 -67 10 -10
18 -27 18 -41 0 -6 -7 -23 -16 -38 -20 -26 -6 -28 -4 -28 24 0 20 -5 30 -15
30 -8 0 -15 -9 -15 -19z"/>
</g>
</svg>
